# xmcd
# Track frame offsets:
# 150
# 11332
# 28587
# 46945
# 63145
# 82585
# 104015
# 121925
# 136785
# 153782
# 168350
# 183135
# 199052
# 217807
# 235167
#
# Disc length: 3207 seconds
# Revision: 0
# Processed by: cddbd v1.4PL0 Copyright (c) Steve Scherf et al.
# Submitted via: VisiTrax 2.9.5.180 - For more info visit www.synapsa.com
#
DISCID=aa0c850f
DTITLE=Jill Jones and Hays County Gals and Pals - My Heart Keeps Singing
DYEAR=1996
DGENRE=Cowboy
TTITLE0=Round Up Time
TTITLE1=Saddle Serenade
TTITLE2=Swiss Moonlight Lullaby
TTITLE3=Dust Eatin' Cowboys
TTITLE4=Paint The Town
TTITLE5=Round Up Lullaby
TTITLE6=Cowboy Nightherd Song
TTITLE7=Hittin' The Trail
TTITLE8=Way Out There
TTITLE9=Yodeling Farmer's Song
TTITLE10=Plain Ol' Plains
TTITLE11=Rockinover
TTITLE12=Sundown On The Prairie
TTITLE13=Headin' For Texas And Home
TTITLE14=Happy Trails
EXTD=
EXTT0=
EXTT1=
EXTT2=
EXTT3=
EXTT4=
EXTT5=
EXTT6=
EXTT7=
EXTT8=
EXTT9=
EXTT10=
EXTT11=
EXTT12=
EXTT13=
EXTT14=
PLAYORDER=
